<svg xmlns="http://www.w3.org/2000/svg" width="50" height="50" viewBox="0 0 50 50" role="img" aria-label="Cherries">
  <rect width="50" height="50" rx="10" fill="none"/>
  <path d="M18 11c2.5 0 4.2 1.1 5.5 3 1.2-2 3-3.3 5.7-3.9 1.8 0 3.2.4 4.2 1.4-2.2 1.8-4.4 2.8-7 3.2-1.7.2-3.2.8-4.8 2.1-.9-2.2-2.4-3.9-3.6-5.8z" fill="#166534"/>
  <path d="M22 17c.7 1.8 1 3.8 1 5.8" fill="none" stroke="#166534" stroke-width="1.5" stroke-linecap="round"/>
  <path d="M25 21c-3.2 0-5.8 2.6-5.8 5.8S21.8 32.6 25 32.6 30.8 30 30.8 26.8 28.2 21 25 21zm10 4.2c-3.2 0-5.8 2.6-5.8 5.8S31.8 36.8 35 36.8 40.8 34.2 40.8 31 38.2 25.2 35 25.2z" fill="#dc2626"/>
  <circle cx="21.5" cy="24.8" r="1.4" fill="#fca5a5" opacity="0.7"/>
  <circle cx="31.5" cy="29.8" r="1.4" fill="#fca5a5" opacity="0.7"/>
</svg>
