<svg xmlns="http://www.w3.org/2000/svg" width="50" height="50" viewBox="0 0 50 50" role="img" aria-label="Dragon fruit">
  <rect width="50" height="50" rx="10" fill="none"/>
  <path d="M25 9c8 0 14 6 14 14s-6 18-14 18S11 31 11 23 17 9 25 9z" fill="#ec4899"/>
  <path d="M16 18l-4-2 3 5-4 3 5 0" fill="#22c55e"/>
  <path d="M34 18l4-2-3 5 4 3-5 0" fill="#22c55e"/>
  <path d="M14 30l-3 4 5-1 2 4 2-5" fill="#22c55e"/>
  <path d="M36 30l3 4-5-1-2 4-2-5" fill="#22c55e"/>
  <circle cx="20" cy="22" r="1" fill="#fff"/>
  <circle cx="24" cy="24" r="1" fill="#fff"/>
  <circle cx="28" cy="22" r="1" fill="#fff"/>
  <circle cx="22" cy="28" r="1" fill="#fff"/>
  <circle cx="26" cy="29" r="1" fill="#fff"/>
</svg>
