<svg xmlns="http://www.w3.org/2000/svg" width="50" height="50" viewBox="0 0 50 50" role="img" aria-label="Mango">
  <rect width="50" height="50" rx="10" fill="none"/>
  <path d="M31 10c4 0 7 3 7 7 0 2.3-.8 4.5-2.2 6.2 1.7 2.1 2.7 4.7 2.7 7.6 0 6.4-5.1 11.6-11.5 11.6S15.5 37.2 15.5 30.8c0-5.2 3.4-9.7 8.1-11.2C24.8 14 27.5 10 31 10z" fill="#f59e0b"/>
  <path d="M28 13c2.4 0 4.4 1 5.8 2.7" fill="none" stroke="#d97706" stroke-width="2" stroke-linecap="round"/>
  <path d="M33 12c1.8-.4 4.2.3 5.7 1.7-1.6 2.1-3.8 3.7-6.7 4.3-.8-1.5-.8-3.5 1-6z" fill="#15803d"/>
  <path d="M20 29c3-6 7-10 13-12" fill="none" stroke="#fde68a" stroke-width="2.2" stroke-linecap="round" opacity="0.9"/>
</svg>
