<svg xmlns="http://www.w3.org/2000/svg" width="50" height="50" viewBox="0 0 50 50" role="img" aria-label="Pineapple">
  <rect width="50" height="50" rx="10" fill="none"/>
  <path d="M19 9c2.2 1.3 3.8 3 5 5 1.2-2 2.8-3.7 5-5 1.3 2 1.8 4 1.5 6.2 2.3-1 4.6-1.3 7-1.2-1.5 2.5-3.4 4.5-5.7 6 .5 1.6.7 3.3.7 5.1 0 8.2-4.5 14.7-8.5 14.7S15.5 33.3 15.5 25.1c0-1.8.2-3.5.7-5.1-2.3-1.5-4.2-3.5-5.7-6 2.4-.1 4.7.2 7 1.2-.3-2.2.2-4.2 1.5-6.2z" fill="#f59e0b"/>
  <path d="M17 23l16-10M15.5 28.5l19-12M16.8 34.2l18.4-11.5M20 39l10-6.3" stroke="#7c2d12" stroke-width="1.2" opacity="0.7"/>
  <path d="M18 21l14 8M17.2 27.3l15.5 9M18.5 33l11 6.5" stroke="#7c2d12" stroke-width="1.2" opacity="0.7"/>
  <path d="M25 16c1.4 0 2.7 1.1 2.7 2.5S26.4 21 25 21s-2.7-1.1-2.7-2.5S23.6 16 25 16z" fill="#fef3c7"/>
</svg>
