<svg xmlns="http://www.w3.org/2000/svg" width="50" height="50" viewBox="0 0 50 50" role="img" aria-label="Strawberry">
  <rect width="50" height="50" rx="10" fill="none"/>
  <path d="M25 8c3.5 0 6.5 2 7.5 5.5 4-1 7 1 8.5 4.5-2 2-3.5 4-4.5 6.5-1.5 3.7-1.5 7.2-1 10.5-4 5.5-16 5.5-20 0-.5-3.3-.5-6.8-1-10.5-1-2.5-2.5-4.5-4.5-6.5 1.5-3.5 4.5-5.5 8.5-4.5C18.5 10 21.5 8 25 8z" fill="#e11d2e"/>
  <path d="M18 10c2.2 0 4.2 1 5.2 2.6 1-1.6 3-2.6 5.3-2.6 1.7 0 3.3.5 4.4 1.5-1.7 1.6-3.3 2.7-5.5 3.1-1.5-1-2.8-1.7-4.2-1.7s-2.7.7-4.2 1.7c-2.2-.4-3.8-1.5-5.5-3.1 1.1-1 2.7-1.5 4.5-1.5z" fill="#2f8f2f"/>
  <path d="M25 15c1.2 0 2.2 1 2.2 2.2S26.2 19.4 25 19.4s-2.2-1-2.2-2.2S23.8 15 25 15zm-6 5.5c1.2 0 2.2 1 2.2 2.2S20.2 25 19 25s-2.2-1-2.2-2.2 1-2.3 2.2-2.3zm12 0c1.2 0 2.2 1 2.2 2.2S32.2 25 31 25s-2.2-1-2.2-2.2 1-2.3 2.2-2.3zM22 27c1.2 0 2.2 1 2.2 2.2S23.2 31.4 22 31.4s-2.2-1-2.2-2.2S20.8 27 22 27zm6 0c1.2 0 2.2 1 2.2 2.2S29.2 31.4 28 31.4s-2.2-1-2.2-2.2S26.8 27 28 27z" fill="#ffd24d" opacity="0.95"/>
</svg>
