<svg xmlns="http://www.w3.org/2000/svg" width="50" height="50" viewBox="0 0 50 50" role="img" aria-label="Watermelon">
  <rect width="50" height="50" rx="10" fill="none"/>
  <path d="M6.5 36.5C12 21 25 11.5 43 10l-1.8 4.4c-13.8 1.2-23.8 8.5-29.7 22.1H6.5z" fill="#1c8d3b"/>
  <path d="M8.8 35.6C13.4 22.8 25 14.8 40.3 13.6l-1.2 2.8C27.9 17.8 19.5 24 14.1 35.6H8.8z" fill="#f5f4e8"/>
  <path d="M10.7 35.2C14.6 24.3 25.1 17.4 38.1 16.4l-0.9 2.1c-10.1 1-18 6.8-22.8 16.7h-4.7z" fill="#ff5b5f"/>
  <path d="M15.2 33.4c3.1-7.5 9.4-12.2 18.4-13.3" fill="none" stroke="#ffb54f" stroke-width="1.4" stroke-linecap="round"/>
  <path d="M24.8 21.8c.3 0 1.7 1.4 1.7 2.8S25 27.7 25 27.7s-1.7-1.3-1.7-2.7.9-3.2 1.5-3.2zm-6.4 3.3c.3 0 1.7 1.4 1.7 2.8s-1.1 3.1-1.1 3.1-1.7-1.3-1.7-2.7.9-3.2 1.1-3.2zm12.8 0c.3 0 1.7 1.4 1.7 2.8s-1.1 3.1-1.1 3.1-1.7-1.3-1.7-2.7.9-3.2 1.1-3.2z" fill="#2d1c12"/>
</svg>
